<svg width="271" height="271" viewBox="0 0 271 271" fill="none" xmlns="http://www.w3.org/2000/svg">
<path d="M127.378 270.681C123.481 270.455 117.494 269.835 113.993 269.27L107.667 268.311L123.255 244.958L138.844 221.66L142.007 221.322C151.439 220.363 161.944 217.768 169.343 214.609L171.489 213.65L171.207 215.512C171.037 216.527 170.247 228.486 169.399 242.081L167.818 266.732L165.559 267.352C161.04 268.593 151.043 270.117 145.565 270.399C142.571 270.568 138.844 270.793 137.262 270.906C135.737 270.963 131.275 270.906 127.378 270.681Z" fill="#ED1B24"/>
<path d="M90.1583 263.065C76.6596 258.327 62.2572 250.26 50.6788 240.953L45.3696 236.722L70.3338 224.368C84.115 217.599 95.5804 212.014 95.8628 212.014C96.1452 212.014 97.7832 212.748 99.5905 213.65C104.278 216.019 114.671 219.178 121.448 220.25L127.379 221.209L126.419 222.676C118.963 234.183 97.7267 265.604 97.5008 265.547C97.3313 265.547 93.999 264.419 90.1583 263.065Z" fill="#ED1B24"/>
<path d="M177.815 261.599C177.985 260.245 178.832 247.722 179.736 233.788L181.317 208.404L183.802 206.712C190.975 201.748 198.882 194.245 203.853 187.645L205.378 185.558L217.295 209.363L229.156 233.168L226.106 235.876C214.471 246.311 199.334 255.732 185.271 261.26C177.025 264.475 177.42 264.475 177.815 261.599Z" fill="#ED1B24"/>
<path d="M34.5255 225.835C25.8841 216.076 18.824 205.358 13.289 193.794C10.2391 187.419 6.85027 178.789 7.18915 178.394C7.30211 178.337 19.7842 179.071 34.9773 180.03L62.5961 181.835L66.5497 187.194C70.8987 193.004 77.5068 199.83 82.4206 203.553L85.527 205.865L61.8054 217.712C48.7585 224.199 38.0273 229.501 37.9143 229.501C37.8578 229.501 36.3329 227.865 34.5255 225.835Z" fill="#ED1B24"/>
<path d="M50.2832 171.399C47.1768 171.117 35.5419 170.384 24.4153 169.65L4.25192 168.353L3.68712 166.379C0.0723924 153.517 -0.831289 130.84 1.71031 114.594L2.67048 108.276L25.9967 123.845L49.3795 139.358L49.7184 143.138C50.6221 152.05 53.2201 162.43 56.4395 169.876C57.1173 171.455 57.1738 171.963 56.6654 171.907C56.2701 171.85 53.3896 171.625 50.2832 171.399Z" fill="#ED1B24"/>
<path d="M27.9736 113.522C15.9998 105.568 6.05934 98.8557 5.77694 98.6865C4.98622 97.9531 9.84351 85.0352 14.136 76.3481C18.7674 67.0404 23.6246 59.3687 30.0634 51.302L34.2994 46.0559L46.6685 70.9891C53.5026 84.7532 59.0377 96.2044 59.0377 96.4865C59.0377 96.7685 58.3034 98.4044 57.3997 100.21C56.4961 101.958 55.0276 105.794 54.0674 108.671C52.486 113.297 51.7517 116.512 50.1703 125.594L49.7184 127.963L27.9736 113.522Z" fill="#ED1B24"/>
<path d="M53.1637 62.1328L41.4159 38.6098L44.4093 35.9022C54.011 27.3278 65.5329 19.6561 76.8289 14.2407C83.55 11.0253 92.3045 7.52792 92.6433 7.92279C92.7563 8.03561 92.022 20.5022 91.0619 35.7329L89.2545 63.3174L86.2046 65.461C78.9752 70.4815 71.3503 77.7584 66.9449 83.8507C66.2106 84.8096 65.4764 85.6558 65.307 85.6558C65.0811 85.6558 59.659 75.0507 53.1637 62.1328Z" fill="#ED1B24"/>
<path d="M171.151 58.1842C169.626 57.3944 165.842 55.8714 162.848 54.856C157.991 53.2201 154.771 52.4868 145.565 50.8509L143.193 50.3996L157.652 28.6817C165.616 16.7228 172.337 6.79464 172.506 6.51259C173.24 5.72285 186.174 10.5741 194.872 14.8613C204.248 19.4869 211.873 24.3382 219.949 30.7689L225.202 35.0561L200.238 47.3534C186.457 54.1791 174.935 59.7072 174.596 59.7072C174.257 59.6508 172.732 58.9739 171.151 58.1842Z" fill="#ED1B24"/>
<path d="M99.3644 56.2097C99.5339 55.1944 100.325 43.2354 101.172 29.6406L102.753 4.98945L104.73 4.42535C109.248 3.12792 120.206 1.54844 127.435 1.15357C136.698 0.589469 147.937 1.09716 156.579 2.451L162.905 3.40997L147.316 26.7073L131.784 50.061L128 50.3995C119.471 51.3021 108.175 54.1226 101.228 57.1123L99.082 58.0713L99.3644 56.2097Z" fill="#ED1B24"/>
<path d="M116.984 148.322C114.961 148.322 113.079 148.034 111.339 147.459C109.598 146.883 108.081 146.084 106.787 145.061C105.493 144.038 104.494 142.823 103.788 141.416C103.082 139.988 102.73 138.41 102.73 136.684C102.73 134.979 103.094 133.423 103.823 132.016C104.553 130.588 105.552 129.362 106.822 128.339C108.116 127.294 109.633 126.484 111.374 125.909C113.138 125.333 115.032 125.046 117.054 125.046C118.395 125.046 119.689 125.195 120.935 125.493C122.182 125.77 123.346 126.165 124.428 126.676C125.534 127.167 126.498 127.763 127.322 128.467L123.229 133.103C122.758 132.677 122.217 132.293 121.606 131.952C121.018 131.611 120.324 131.334 119.524 131.121C118.748 130.907 117.866 130.801 116.878 130.801C115.984 130.801 115.114 130.929 114.267 131.184C113.42 131.44 112.668 131.824 112.009 132.335C111.374 132.847 110.868 133.476 110.492 134.222C110.115 134.947 109.927 135.789 109.927 136.748C109.927 137.686 110.115 138.517 110.492 139.242C110.892 139.966 111.444 140.574 112.15 141.064C112.856 141.554 113.667 141.938 114.585 142.215C115.502 142.492 116.502 142.631 117.584 142.631C118.572 142.631 119.454 142.503 120.23 142.247C121.03 141.991 121.735 141.682 122.347 141.32C122.982 140.958 123.546 140.585 124.04 140.201L127.322 144.997C126.687 145.551 125.828 146.084 124.746 146.595C123.664 147.107 122.453 147.523 121.112 147.842C119.771 148.162 118.395 148.322 116.984 148.322Z" fill="#ED1B24"/>
<path d="M133.294 148.002V125.621H140.28V142.535H153.017V148.002H133.294Z" fill="#ED1B24"/>
<path d="M170.195 148.194C167.866 148.194 165.808 147.778 164.02 146.947C162.256 146.116 160.868 144.975 159.857 143.526C158.869 142.077 158.375 140.425 158.375 138.57V125.621H165.432V138.346C165.432 139.199 165.632 139.956 166.032 140.616C166.455 141.277 167.019 141.799 167.725 142.183C168.454 142.546 169.278 142.727 170.195 142.727C171.183 142.727 172.041 142.546 172.771 142.183C173.5 141.799 174.076 141.277 174.499 140.616C174.946 139.956 175.17 139.199 175.17 138.346V125.621H182.015V138.57C182.015 140.425 181.509 142.077 180.497 143.526C179.51 144.975 178.133 146.116 176.369 146.947C174.605 147.778 172.547 148.194 170.195 148.194Z" fill="#ED1B24"/>
<path d="M196.566 148.002V131.089H188.098V125.621H212.266V131.089H203.552V148.002H196.566Z" fill="#ED1B24"/>
<path d="M230.033 148.322C228.01 148.322 226.129 148.034 224.388 147.459C222.647 146.883 221.13 146.084 219.837 145.061C218.543 144.038 217.543 142.823 216.838 141.416C216.132 139.988 215.779 138.41 215.779 136.684C215.779 134.979 216.144 133.423 216.873 132.016C217.602 130.588 218.602 129.362 219.872 128.339C221.166 127.294 222.683 126.484 224.423 125.909C226.187 125.333 228.081 125.046 230.104 125.046C231.445 125.046 232.738 125.195 233.985 125.493C235.232 125.77 236.396 126.165 237.478 126.676C238.583 127.167 239.548 127.763 240.371 128.467L236.278 133.103C235.808 132.677 235.267 132.293 234.655 131.952C234.067 131.611 233.373 131.334 232.574 131.121C231.797 130.907 230.915 130.801 229.927 130.801C229.034 130.801 228.163 130.929 227.316 131.184C226.47 131.44 225.717 131.824 225.058 132.335C224.423 132.847 223.918 133.476 223.541 134.222C223.165 134.947 222.977 135.789 222.977 136.748C222.977 137.686 223.165 138.517 223.541 139.242C223.941 139.966 224.494 140.574 225.2 141.064C225.905 141.554 226.717 141.938 227.634 142.215C228.551 142.492 229.551 142.631 230.633 142.631C231.621 142.631 232.503 142.503 233.279 142.247C234.079 141.991 234.785 141.682 235.396 141.32C236.031 140.958 236.596 140.585 237.09 140.201L240.371 144.997C239.736 145.551 238.877 146.084 237.795 146.595C236.713 147.107 235.502 147.523 234.161 147.842C232.821 148.162 231.445 148.322 230.033 148.322Z" fill="#ED1B24"/>
<path d="M263.279 148.002V125.621H270.265V148.002H263.279ZM246.343 148.002V125.621H253.329V148.002H246.343ZM248.989 139.689L249.025 134.126H267.125V139.689H248.989Z" fill="#ED1B24"/>
</svg>
