<svg width="24" height="24" viewBox="0 0 24 24" fill="none" xmlns="http://www.w3.org/2000/svg">
<path d="M21.5671 14.7155C21.6117 14.76 21.6429 14.8163 21.6568 14.8777C21.6708 14.9391 21.6671 15.0032 21.6462 15.0626C21.1552 16.4534 20.3568 17.7157 19.3105 18.7553C17.4449 20.6195 14.9145 21.6672 12.2771 21.6667C9.63963 21.6662 7.11036 20.6183 5.24541 18.7533C3.38047 16.8884 2.33253 14.3591 2.33203 11.7217C2.33153 9.08424 3.37851 6.55457 5.24276 4.68892C6.28221 3.64267 7.5449 2.84362 8.93555 2.35254C8.99493 2.3315 9.05939 2.32762 9.12083 2.34154C9.18227 2.35546 9.23851 2.38652 9.28303 2.4311C9.32754 2.47569 9.35851 2.53197 9.37233 2.59344C9.38615 2.65485 9.38229 2.71891 9.36121 2.77822C8.77129 4.43253 8.66288 6.22027 9.04859 7.93373C9.43429 9.6472 10.2983 11.2161 11.5402 12.458C12.782 13.7 14.3508 14.564 16.0643 14.9499C17.7777 15.3357 19.5655 15.2274 21.2198 14.6375C21.2791 14.6164 21.3432 14.6125 21.4047 14.6263C21.4662 14.6401 21.5225 14.671 21.5671 14.7155ZM18.8382 18.2852C19.4772 17.6469 20.0193 16.9181 20.4469 16.1225L20.7824 15.4983L20.0876 15.638C18.477 15.9617 16.8114 15.8839 15.238 15.4114C13.6649 14.9389 12.2323 14.0865 11.0667 12.9294C9.90975 11.7636 9.05746 10.331 8.58504 8.758C8.11251 7.18459 8.03457 5.51904 8.3581 3.90837L8.49805 3.21163L7.87286 3.54952C6.70153 4.18257 5.68013 5.06025 4.87801 6.12297C4.0759 7.18569 3.51185 8.40857 3.22416 9.70857C2.93647 11.0086 2.93188 12.3553 3.21071 13.6572C3.48953 14.9591 4.04524 16.1858 4.84009 17.254C5.63495 18.3221 6.65035 19.2068 7.81734 19.8478C8.98433 20.4888 10.2756 20.8712 11.6034 20.969C12.9313 21.0668 14.2646 20.8778 15.513 20.4147C16.7613 19.9516 17.8954 19.2253 18.8382 18.2852Z" fill="black"/>
<path d="M21.6568 14.8777C21.6429 14.8163 21.6117 14.76 21.5671 14.7155C21.5225 14.671 21.4662 14.6401 21.4047 14.6263C21.3432 14.6125 21.2791 14.6164 21.2198 14.6375C19.5655 15.2274 17.7777 15.3357 16.0643 14.9499C14.3508 14.564 12.782 13.7 11.5402 12.458C10.2983 11.2161 9.43429 9.6472 9.04859 7.93373C8.66288 6.22027 8.77129 4.43253 9.36121 2.77822C9.38229 2.71891 9.38615 2.65485 9.37233 2.59344C9.35851 2.53197 9.32754 2.47569 9.28303 2.4311C9.23851 2.38652 9.18227 2.35546 9.12083 2.34154C9.05939 2.32762 8.99493 2.3315 8.93555 2.35254C7.5449 2.84362 6.28221 3.64267 5.24276 4.68892C3.37851 6.55457 2.33153 9.08424 2.33203 11.7217C2.33253 14.3591 3.38047 16.8884 5.24541 18.7533C7.11036 20.6183 9.63963 21.6662 12.2771 21.6667C14.9145 21.6672 17.4449 20.6195 19.3105 18.7553C20.3568 17.7157 21.1552 16.4534 21.6462 15.0626C21.6671 15.0032 21.6708 14.9391 21.6568 14.8777ZM21.6568 14.8777L21.9818 14.8037M18.8382 18.2852C19.4772 17.6469 20.0193 16.9181 20.4469 16.1225L20.7824 15.4983L20.0876 15.638C18.477 15.9617 16.8114 15.8839 15.238 15.4114C13.6649 14.9389 12.2323 14.0865 11.0667 12.9294C9.90975 11.7636 9.05746 10.331 8.58504 8.758C8.11251 7.18459 8.03457 5.51904 8.3581 3.90837L8.49805 3.21163L7.87286 3.54952C6.70153 4.18257 5.68013 5.06025 4.87801 6.12297C4.0759 7.18569 3.51185 8.40857 3.22416 9.70857C2.93647 11.0086 2.93188 12.3553 3.21071 13.6572C3.48953 14.9591 4.04524 16.1858 4.84009 17.254C5.63495 18.3221 6.65035 19.2068 7.81734 19.8478C8.98433 20.4888 10.2756 20.8712 11.6034 20.969C12.9313 21.0668 14.2646 20.8778 15.513 20.4147C16.7613 19.9516 17.8954 19.2253 18.8382 18.2852Z" stroke="black" stroke-width="0.666594"/>
</svg>
