<svg width="24" height="24" viewBox="0 0 24 24" fill="none" xmlns="http://www.w3.org/2000/svg">
<path d="M6.8629 14.6805C4.37903 16.316 4.37903 18.9813 6.8629 20.6068C9.68548 22.4644 14.3145 22.4644 17.1371 20.6068C19.621 18.9712 19.621 16.3059 17.1371 14.6805C14.3248 12.8329 9.69575 12.8329 6.8629 14.6805Z" stroke="#0F0F0F" stroke-width="1.5" stroke-linecap="round" stroke-linejoin="round"/>
<path d="M11.9949 10.9551C11.8922 10.945 11.7691 10.945 11.6561 10.9551C9.21332 10.8743 7.27344 8.9056 7.27344 6.48258C7.27344 4.00909 9.3057 2 11.8306 2C14.3453 2 16.3878 4.00909 16.3878 6.48258C16.3776 8.9056 14.4377 10.8743 11.9949 10.9551Z" stroke="#0F0F0F" stroke-width="1.5" stroke-linecap="round" stroke-linejoin="round"/>
</svg>
