<svg width="20" height="20" viewBox="0 0 20 20" fill="none" xmlns="http://www.w3.org/2000/svg">
<path d="M16.6168 15.7869L16.6139 15.7785H16.605H12.5634H12.5545L12.5516 15.7869L11.6587 18.3202H9.93563L13.7178 8.34517H15.4506L19.2327 18.3202H17.5097L16.6168 15.7869ZM10.0842 4.98684H0.84668V3.34517H6.66752H6.68002V3.33267V1.67851H8.32168V3.33267V3.34517H8.33418H14.155V4.98684H11.7509H11.7415L11.7389 4.99584C11.4475 5.99483 11.0104 7.02175 10.4274 8.07663C9.8444 9.1316 9.2687 9.93601 8.70045 10.4904L8.69149 10.4991L8.70025 10.5081L10.6947 12.5441L10.0793 14.2264L7.55146 11.6365L7.54265 11.6274L7.5337 11.6363L3.33421 15.815L2.1852 14.666L6.38469 10.4665L6.39353 10.4577L6.38469 10.4488C5.89928 9.96342 5.45887 9.4086 5.06349 8.78432C4.67098 8.16456 4.30914 7.46263 3.97802 6.67851H5.70155C5.97835 7.2177 6.25524 7.68814 6.53223 8.08977C6.81044 8.49318 7.14423 8.89649 7.53352 9.29969L7.54236 9.30884L7.55136 9.29985C8.01068 8.84052 8.48698 8.19722 8.98033 7.37033C9.47376 6.54332 9.8457 5.75431 10.096 5.00329L10.1015 4.98684H10.0842ZM13.0724 14.3285L13.0665 14.3452H13.0842H16.0842H16.1019L16.096 14.3285L14.596 10.0785L14.5842 10.0451L14.5724 10.0785L13.0724 14.3285Z" fill="black" stroke="black" stroke-width="0.025"/>
</svg>
